<?xml version="1.0" standalone="no"?>
<!DOCTYPE svg PUBLIC "-//W3C//DTD SVG 20010904//EN"
 "http://www.w3.org/TR/2001/REC-SVG-20010904/DTD/svg10.dtd">
<svg version="1.0" xmlns="http://www.w3.org/2000/svg"
 width="758.000000pt" height="800.000000pt" viewBox="0 0 758.000000 800.000000"
 preserveAspectRatio="xMidYMid meet">

<g transform="translate(0.000000,800.000000) scale(0.100000,-0.100000)"
fill="#000000" stroke="none">
<path d="M1765 7981 c4 -13 -2 -26 -16 -40 -18 -16 -20 -23 -10 -35 7 -8 16
-27 20 -43 6 -21 14 -28 32 -28 19 -1 23 -5 21 -23 -2 -15 1 -20 11 -16 7 2
20 -2 27 -11 17 -20 27 -19 35 5 6 19 6 19 42 -1 27 -15 38 -17 49 -8 11 9 18
8 29 -1 13 -11 14 -8 9 19 -4 19 -2 31 4 31 6 0 12 10 14 23 5 34 41 34 57 0
12 -27 13 -27 27 -9 14 19 15 19 42 -7 43 -41 99 -32 58 9 -8 8 -19 14 -25 14
-5 0 -18 13 -27 29 -10 17 -21 28 -26 25 -5 -3 -6 -9 -3 -14 3 -5 1 -11 -4
-15 -6 -3 -15 4 -21 15 -9 17 -5 26 25 57 19 20 35 38 35 40 0 1 -93 3 -206 3
-198 0 -205 -1 -199 -19z m95 -76 c0 -8 -4 -15 -10 -15 -5 0 -10 7 -10 15 0 8
5 15 10 15 6 0 10 -7 10 -15z m110 -29 c0 -11 -19 -15 -25 -6 -3 5 1 10 9 10
9 0 16 -2 16 -4z"/>
<path d="M2916 7985 c8 -19 -3 -35 -54 -79 -31 -29 -45 -36 -55 -28 -15 13
-53 9 -50 -4 1 -5 14 -10 28 -12 26 -3 105 -71 105 -89 0 -5 13 -8 29 -5 16 2
32 -1 35 -7 4 -7 -1 -11 -13 -11 -12 0 -21 -4 -21 -9 0 -5 -3 -17 -7 -27 -5
-14 -2 -16 15 -12 12 4 22 2 22 -3 0 -5 18 -12 40 -15 22 -4 44 -12 48 -18 4
-6 7 -51 7 -101 l0 -90 27 -3 c27 -3 98 40 98 59 0 26 99 97 131 93 22 -2 25
1 21 22 -2 13 -12 26 -23 29 -22 7 -15 31 11 38 17 4 18 8 7 36 -10 27 -16 31
-36 26 -23 -6 -24 -4 -18 34 4 29 0 44 -13 58 -9 10 -19 41 -22 67 -3 27 -12
52 -19 57 -8 5 -78 9 -156 8 -116 0 -141 -3 -137 -14z m74 -165 c0 -5 -2 -10
-4 -10 -3 0 -8 5 -11 10 -3 6 -1 10 4 10 6 0 11 -4 11 -10z m110 -196 c0 -8
-4 -12 -10 -9 -5 3 -10 10 -10 16 0 5 5 9 10 9 6 0 10 -7 10 -16z"/>
<path d="M2796 7925 c-3 -8 -1 -15 4 -15 6 0 10 7 10 15 0 8 -2 15 -4 15 -2 0
-6 -7 -10 -15z"/>
<path d="M2640 7903 c0 -10 7 -14 20 -10 13 3 20 0 20 -8 0 -20 -19 -28 -35
-15 -11 9 -17 5 -30 -19 -8 -17 -20 -31 -25 -31 -6 0 -10 -5 -10 -11 0 -6 -10
-25 -22 -42 -15 -22 -17 -28 -5 -18 15 12 17 11 17 -13 0 -23 4 -27 22 -24 17
2 24 12 28 38 8 49 16 58 61 77 41 16 51 43 26 73 -16 21 -67 23 -67 3z"/>
<path d="M4167 7871 c-44 -16 43 -52 208 -87 110 -23 120 -24 203 -35 40 -5
82 -14 93 -19 11 -6 24 -8 29 -5 5 3 18 2 27 -4 10 -5 50 -12 88 -15 109 -11
118 -12 155 -24 44 -15 290 -52 367 -55 17 -1 29 -5 26 -9 -2 -5 0 -8 6 -8 5
0 13 5 16 10 4 6 11 8 16 4 5 -3 7 -8 5 -12 -2 -4 12 -8 32 -10 19 -1 41 -7
48 -13 17 -14 164 -23 164 -10 0 13 -12 16 -120 35 -52 9 -114 21 -138 26 -23
6 -55 10 -70 10 -15 0 -38 7 -51 17 -14 9 -51 18 -90 20 -36 3 -75 6 -87 6
-11 1 -28 8 -37 15 -8 7 -53 17 -99 22 -45 5 -105 16 -133 24 -27 9 -66 16
-86 16 -20 0 -39 3 -43 8 -9 9 -108 29 -205 42 -40 5 -88 14 -105 19 -17 5
-62 13 -101 16 -38 4 -77 11 -85 15 -8 4 -23 5 -33 1z"/>
<path d="M2394 7810 c-6 -6 -27 -12 -47 -13 -21 -2 -43 -9 -49 -15 -18 -18 20
-42 62 -39 27 1 38 8 48 30 15 30 5 56 -14 37z"/>
<path d="M2111 7723 l-53 -4 23 -25 c28 -29 48 -30 83 -3 28 22 34 40 14 37
-7 -1 -37 -3 -67 -5z"/>
<path d="M2080 7632 c0 -11 9 -29 20 -42 11 -13 20 -27 20 -32 0 -4 6 -8 14
-8 8 0 18 14 21 33 4 17 13 35 19 39 6 4 -1 8 -16 8 -16 0 -28 5 -28 10 0 6
-11 10 -25 10 -18 0 -25 -5 -25 -18z"/>
<path d="M142 7598 c-18 -18 -14 -53 8 -73 27 -25 40 -9 32 39 -8 42 -21 53
-40 34z"/>
<path d="M2324 7576 c-8 -45 2 -90 27 -112 10 -9 19 -21 19 -26 0 -15 -17 -8
-41 16 l-24 24 -1 -47 c-2 -42 1 -49 28 -64 16 -9 34 -15 39 -11 5 3 9 -2 9
-10 0 -9 -4 -16 -9 -16 -4 0 -6 -11 -3 -25 5 -30 32 -34 32 -5 0 26 8 25 32
-5 11 -14 25 -25 33 -25 7 0 16 -11 19 -24 7 -29 41 -25 49 5 7 25 -10 95 -29
124 -11 18 -14 36 -9 64 5 33 3 41 -14 50 -11 6 -23 21 -27 33 -8 29 -34 59
-45 52 -5 -2 -14 4 -21 16 -7 11 -23 20 -35 20 -17 0 -24 -7 -29 -34z m86
-226 c0 -5 -5 -10 -11 -10 -5 0 -7 5 -4 10 3 6 8 10 11 10 2 0 4 -4 4 -10z"/>
<path d="M2755 7500 c3 -5 8 -10 11 -10 2 0 4 5 4 10 0 6 -5 10 -11 10 -5 0
-7 -4 -4 -10z"/>
<path d="M3032 7453 c-6 -11 -36 -31 -67 -43 -30 -12 -55 -24 -55 -27 0 -3 7
-18 17 -33 18 -31 51 -50 88 -50 31 0 31 -7 3 -37 -27 -29 -16 -56 25 -61 28
-4 52 -26 43 -41 -3 -5 -14 -7 -24 -5 -12 4 -21 -4 -30 -26 -8 -16 -20 -30
-27 -30 -8 0 -22 -11 -33 -24 -26 -34 -70 -44 -79 -20 -3 11 -15 30 -25 43
-19 25 -24 61 -8 61 5 0 16 -12 24 -27 l14 -28 11 28 c6 16 11 34 11 41 0 6 5
17 12 24 9 9 9 15 -1 25 -10 10 -16 7 -31 -13 -20 -26 -55 -30 -147 -15 -37 6
-43 11 -57 49 -9 23 -16 50 -16 59 0 15 -8 12 -42 -15 -24 -18 -45 -34 -48
-36 -3 -2 6 -12 19 -23 27 -22 22 -56 -7 -44 -26 11 -47 11 -46 0 1 -5 5 -25
9 -43 6 -31 5 -33 -14 -27 -17 5 -21 2 -22 -17 0 -20 -2 -20 -11 7 -14 37 -37
56 -61 49 -10 -3 -24 0 -32 6 -12 10 -15 9 -15 -4 0 -9 7 -16 15 -16 14 0 21
-30 16 -68 -1 -8 4 -21 11 -29 7 -9 13 -26 13 -37 0 -12 6 -21 14 -21 8 0 16
-7 18 -15 4 -12 3 -12 -5 -1 -7 9 -12 10 -16 2 -10 -16 -41 -14 -56 4 -7 8
-16 15 -21 15 -5 0 -9 -7 -9 -15 0 -8 -3 -15 -7 -16 -5 0 -18 -2 -31 -5 -14
-2 -30 4 -45 19 l-22 22 -3 -32 c-3 -33 -16 -44 -24 -20 -2 6 -3 31 -3 54 0
28 -4 43 -12 43 -7 0 -13 -5 -13 -11 0 -7 -9 0 -21 15 -28 36 -39 33 -32 -9 7
-44 -7 -46 -54 -5 -36 32 -52 37 -71 18 -7 -7 -8 -17 -2 -28 8 -15 3 -21 -25
-34 -43 -21 -45 -29 -4 -22 30 4 31 3 25 -25 -5 -25 -3 -28 16 -25 12 1 24 8
26 14 7 23 31 12 34 -15 l3 -28 25 40 25 40 5 -40 c5 -37 8 -40 39 -43 21 -2
31 0 26 7 -3 6 1 11 9 11 19 0 21 -21 4 -38 -9 -9 -8 -15 8 -26 17 -13 20 -13
26 2 6 15 8 14 14 -5 8 -28 24 -30 24 -3 0 11 5 20 10 20 20 0 29 44 14 68
-12 19 -12 22 0 22 15 0 26 -42 26 -99 0 -29 5 -38 25 -48 15 -7 27 -7 31 -2
3 6 14 7 25 4 23 -8 25 7 4 38 -19 29 -5 57 19 38 9 -8 16 -12 17 -10 6 32 5
39 -12 44 -23 8 -25 21 -4 29 28 10 43 -19 34 -66 -4 -24 -5 -60 -2 -82 3 -22
2 -41 -5 -45 -12 -7 3 -97 21 -122 7 -9 29 -19 49 -23 l38 -7 -7 62 c-4 46 -3
60 5 55 7 -4 12 -2 12 3 0 6 -4 11 -10 11 -13 0 -13 56 0 81 7 11 7 19 1 19
-5 0 -12 -6 -15 -12 -3 -7 -4 -4 -3 7 2 11 9 19 15 17 7 -1 15 5 18 13 3 8 11
12 16 9 6 -4 6 -9 -2 -14 -7 -4 -10 -12 -6 -18 9 -15 45 -3 56 18 6 10 23 21
39 25 16 3 39 17 51 30 17 18 27 22 36 14 7 -5 23 -9 36 -8 49 4 78 -1 78 -15
0 -11 13 -15 53 -14 61 1 72 5 57 23 -9 11 -7 12 8 8 24 -6 36 -56 27 -106 -6
-32 -5 -34 35 -46 54 -16 63 -7 59 57 -4 46 -2 50 18 50 37 -1 84 23 81 40 -6
30 -33 36 -76 17 -23 -11 -42 -22 -42 -27 0 -12 -14 -10 -34 5 -18 13 -18 15
-1 40 9 15 15 34 11 42 -6 17 -56 21 -56 5 0 -5 -10 -10 -23 -10 -28 0 -47
-17 -47 -43 0 -17 -5 -19 -36 -14 -42 7 -91 36 -76 46 5 3 12 17 13 31 3 19 9
24 27 22 12 -2 22 1 22 6 0 6 9 8 20 5 13 -4 29 3 47 21 14 14 29 26 34 26 4
0 9 10 11 23 2 18 8 21 32 19 31 -3 46 11 76 73 24 49 26 85 5 85 -8 0 -32 17
-53 38 -28 26 -41 49 -45 78 -4 23 -15 52 -26 65 -18 23 -18 23 -29 2z m-441
-296 c-13 -13 -26 -3 -16 12 3 6 11 8 17 5 6 -4 6 -10 -1 -17z m244 -56 c3
-21 15 -48 26 -59 21 -24 26 -47 7 -36 -10 6 -10 4 0 -7 31 -34 -4 -77 -50
-60 -27 10 -54 39 -45 47 3 3 16 -1 29 -10 24 -17 48 -21 48 -8 0 9 -46 59
-78 84 -12 10 -22 27 -22 39 0 17 5 20 24 17 18 -4 26 0 29 14 8 31 25 20 32
-21z m-215 -81 c0 -5 -7 -10 -16 -10 -8 0 -12 5 -9 10 3 6 10 10 16 10 5 0 9
-4 9 -10z m-50 -81 c0 -6 -4 -7 -10 -4 -5 3 -10 11 -10 16 0 6 5 7 10 4 6 -3
10 -11 10 -16z m-10 -58 c0 -6 -4 -13 -10 -16 -5 -3 -10 1 -10 9 0 9 5 16 10
16 6 0 10 -4 10 -9z"/>
<path d="M1920 7441 c0 -6 4 -13 10 -16 6 -3 7 1 4 9 -7 18 -14 21 -14 7z"/>
<path d="M3519 7373 c-13 -15 -12 -15 9 -4 23 12 28 21 13 21 -5 0 -15 -7 -22
-17z"/>
<path d="M3468 7343 c6 -2 18 -2 25 0 6 3 1 5 -13 5 -14 0 -19 -2 -12 -5z"/>
<path d="M3247 7334 c-8 -8 3 -34 14 -34 11 0 12 27 0 34 -4 3 -11 3 -14 0z"/>
<path d="M2091 7234 c-6 -15 -7 -23 -1 -19 5 3 10 2 10 -4 0 -6 7 -8 15 -5 19
8 19 28 2 43 -11 8 -16 5 -26 -15z"/>
<path d="M50 7180 c-9 -6 -10 -10 -3 -10 6 0 15 5 18 10 8 12 4 12 -15 0z"/>
<path d="M2263 7142 c-13 -8 -7 -52 7 -52 4 0 13 6 19 13 14 17 -8 50 -26 39z"/>
<path d="M1986 7094 c-17 -45 12 -58 68 -29 15 8 32 12 37 9 5 -3 9 -2 9 3 0
12 -51 33 -81 33 -15 0 -29 -7 -33 -16z"/>
<path d="M3118 7073 c7 -3 16 -2 19 1 4 3 -2 6 -13 5 -11 0 -14 -3 -6 -6z"/>
<path d="M3160 7057 c0 -19 14 -38 51 -69 28 -24 54 -41 58 -38 12 10 7 35
-11 53 -10 10 -18 22 -18 26 0 5 -8 11 -17 14 -10 4 -28 14 -40 23 -22 16 -23
16 -23 -9z"/>
<path d="M3384 7025 c-4 -8 -12 -15 -20 -15 -8 0 -14 -9 -14 -20 0 -44 86 -45
109 -2 9 16 6 23 -14 36 -30 20 -54 20 -61 1z"/>
<path d="M2006 7011 c-4 -5 -2 -12 3 -15 5 -4 12 -2 15 3 4 5 2 12 -3 15 -5 4
-12 2 -15 -3z"/>
<path d="M4070 6859 c-41 -4 -91 -10 -110 -12 -55 -7 -223 -47 -244 -59 -10
-5 -38 -10 -62 -10 -24 0 -46 -4 -49 -8 -3 -5 -12 -7 -19 -4 -8 3 -20 -3 -28
-14 -13 -19 -67 -47 -138 -72 -19 -6 -57 -22 -85 -35 -74 -34 -86 -37 -102
-24 -20 17 -41 -4 -25 -24 18 -21 -52 -65 -140 -89 -55 -15 -80 -28 -112 -59
-22 -21 -46 -39 -53 -39 -7 0 -16 -6 -20 -12 -11 -18 -43 -34 -81 -42 -17 -4
-34 -12 -38 -17 -3 -5 -20 -16 -37 -25 -98 -46 -169 -100 -165 -124 4 -24 -19
-49 -41 -43 -26 7 -33 -9 -20 -45 8 -24 7 -36 -4 -54 -8 -13 -17 -39 -21 -58
-3 -19 -15 -43 -25 -55 -24 -27 -64 -142 -56 -163 5 -14 -7 -46 -45 -122 -13
-26 -200 -23 -355 6 -11 2 -90 4 -175 5 -157 1 -250 -7 -250 -21 0 -14 65 -56
120 -77 82 -32 139 -42 305 -53 83 -6 185 -15 228 -21 73 -11 78 -13 72 -33
-13 -44 -17 -104 -7 -110 10 -6 7 -64 -5 -96 -4 -8 -7 -17 -8 -20 -1 -3 -9
-21 -17 -39 -9 -19 -14 -40 -11 -47 2 -6 -7 -31 -20 -56 -16 -29 -21 -51 -16
-60 5 -9 5 -28 1 -44 -15 -61 2 -275 22 -271 6 1 14 6 17 11 4 5 13 -17 20
-48 7 -31 16 -56 21 -56 4 0 8 -8 8 -17 0 -10 16 -49 35 -87 19 -37 35 -75 35
-84 0 -9 11 -47 24 -86 13 -39 29 -91 35 -116 21 -86 34 -120 46 -120 15 0 55
-102 55 -139 0 -16 10 -37 24 -50 13 -12 27 -37 30 -54 9 -45 57 -141 65 -129
3 6 27 -28 51 -75 25 -48 59 -103 75 -124 17 -21 46 -60 65 -86 19 -26 50 -63
68 -80 23 -23 28 -33 18 -33 -9 0 -16 -4 -16 -10 0 -5 7 -10 15 -10 10 0 15
-9 14 -27 0 -25 -1 -26 -9 -8 -7 16 -9 12 -10 -20 -1 -22 -3 -76 -5 -119 -3
-59 0 -87 12 -110 l16 -31 9 25 c5 13 14 28 20 31 9 6 8 11 -1 23 -7 8 -11 30
-9 48 l3 33 23 -23 c29 -29 29 -112 0 -112 -11 0 -18 -8 -18 -19 0 -14 5 -18
20 -14 25 7 26 -12 3 -26 -15 -8 -15 -10 -3 -11 9 0 21 -13 27 -30 7 -20 18
-30 32 -30 23 0 37 -16 19 -23 -9 -3 0 -18 25 -44 20 -21 37 -46 37 -54 0 -8
24 -39 52 -69 65 -67 92 -106 108 -154 6 -19 15 -38 20 -41 14 -8 40 -66 40
-87 0 -11 5 -16 10 -13 6 3 10 2 10 -4 0 -5 -4 -13 -10 -16 -5 -3 -7 -19 -3
-36 5 -25 2 -31 -15 -36 -13 -3 -22 -15 -24 -32 -2 -20 -9 -27 -31 -29 -16 -2
-31 -11 -34 -20 -4 -9 -11 -20 -17 -24 -14 -9 -52 -10 -43 -1 4 3 -1 12 -11
19 -21 16 -36 18 -27 4 14 -23 -51 4 -82 33 -18 17 -33 26 -33 19 0 -17 -25
-15 -40 3 -7 9 -18 14 -23 12 -12 -4 -41 22 -57 53 -6 11 -15 18 -19 15 -5 -3
-12 2 -15 11 -3 8 -10 12 -16 9 -5 -3 -10 0 -10 7 0 8 -15 29 -34 47 -19 18
-32 39 -29 46 2 8 -5 19 -16 25 -15 8 -19 15 -13 26 5 9 6 36 2 61 -10 64 0
95 44 147 33 39 41 44 54 34 12 -10 11 -6 -2 14 -17 27 -17 27 6 23 23 -4 23
-4 25 105 3 114 -5 133 -31 81 -18 -34 -72 -58 -151 -67 -75 -9 -81 -18 -56
-101 11 -37 31 -115 45 -173 24 -97 32 -114 103 -220 43 -63 101 -146 129
-185 28 -38 58 -84 66 -100 20 -38 77 -99 102 -108 10 -4 16 -13 12 -22 -7
-20 133 -152 219 -205 41 -25 43 -35 13 -68 -13 -14 -18 -23 -13 -20 6 3 42
20 80 37 64 30 125 74 125 92 0 3 -15 12 -32 19 -68 27 -226 121 -240 142 -20
33 -12 61 15 52 12 -3 30 -13 39 -21 9 -9 39 -18 65 -21 26 -3 59 -14 73 -24
14 -10 44 -21 65 -25 22 -4 60 -21 85 -40 51 -38 74 -49 112 -57 19 -4 30 -16
38 -42 7 -19 28 -50 48 -67 20 -18 59 -53 87 -78 27 -26 60 -49 71 -53 12 -4
29 -15 39 -26 10 -11 23 -20 29 -20 7 0 35 -22 64 -50 29 -27 58 -50 65 -50 7
0 25 15 41 32 16 18 59 66 97 105 38 40 69 78 69 84 0 7 11 27 25 45 36 46 61
37 69 -26 5 -34 17 -63 40 -93 39 -51 60 -108 51 -137 -4 -12 -30 -36 -58 -54
-29 -18 -84 -54 -124 -79 -40 -26 -80 -55 -90 -65 -10 -10 -34 -30 -54 -45
-90 -65 -237 -232 -363 -411 l-48 -68 21 -22 c21 -20 23 -20 32 -3 6 9 17 17
26 17 11 0 14 6 10 23 -7 24 4 50 19 45 10 -3 60 30 57 37 -14 26 58 79 100
74 31 -4 67 10 107 40 19 15 54 33 77 39 24 7 44 20 48 31 3 10 29 31 57 46
28 15 66 43 84 62 18 18 39 33 48 33 8 0 21 8 28 18 7 10 21 21 31 25 12 4 17
17 17 42 0 32 2 35 29 35 19 0 35 8 45 21 11 16 28 23 73 26 32 3 62 9 67 14
14 12 79 11 113 -2 15 -6 64 -10 108 -10 150 2 209 15 220 50 5 16 12 19 33
15 23 -5 30 0 46 27 27 46 34 167 12 213 -10 21 -14 45 -10 61 4 15 1 31 -6
40 -7 8 -10 24 -7 35 3 10 -1 24 -8 30 -11 9 -15 51 -17 175 0 28 -5 53 -11
56 -5 4 1 17 14 30 14 14 18 24 11 27 -15 5 -16 48 -2 57 6 4 9 14 8 23 -3 14
6 17 51 16 l55 -1 -34 29 c-19 15 -38 28 -43 28 -5 0 -15 7 -23 15 -9 8 -11
15 -5 15 6 0 11 5 11 11 0 6 -9 8 -21 4 -13 -4 -19 -3 -16 2 4 6 -10 15 -31
22 -20 6 -71 28 -112 49 -67 33 -78 43 -105 92 l-30 55 -6 -80 c-4 -44 -12
-251 -18 -460 -11 -377 -20 -491 -43 -540 -10 -23 -16 -25 -77 -25 -82 1 -179
23 -203 47 -17 18 -17 21 7 83 25 68 58 209 99 425 14 72 34 157 46 190 24 68
50 248 50 339 0 34 -11 104 -25 156 -14 52 -25 104 -25 114 0 11 41 82 91 158
150 230 203 351 274 623 39 151 95 415 95 450 0 14 19 48 43 77 48 60 71 105
68 131 -1 9 3 17 8 17 6 0 11 -6 11 -14 0 -29 20 -27 26 3 5 24 12 31 30 31
13 0 24 6 25 13 6 91 12 124 22 132 8 7 13 51 15 126 1 64 8 139 16 167 7 29
9 57 5 64 -14 21 -10 36 8 34 13 -1 21 17 37 79 20 85 26 98 33 77 3 -7 13
-17 24 -22 18 -10 18 -9 7 17 -7 15 -17 34 -22 42 -6 8 -11 66 -12 130 -1 137
-9 235 -20 253 -5 7 -19 42 -31 78 -12 36 -28 74 -34 86 -8 16 -7 32 4 66 9
25 17 82 18 128 1 47 6 100 10 120 11 48 -15 144 -51 190 -15 19 -44 67 -65
105 -54 102 -101 160 -170 210 -22 17 -42 33 -45 36 -15 19 -122 79 -157 88
-22 6 -60 24 -84 41 -24 16 -49 30 -55 30 -6 0 -28 14 -49 30 -21 17 -45 30
-54 30 -9 0 -45 17 -81 37 -36 20 -85 47 -110 60 -25 13 -52 27 -60 32 -21 12
-94 31 -163 42 -32 5 -67 14 -78 20 -17 9 -46 15 -159 33 -14 2 -59 0 -100 -5z
m370 -1021 c25 -11 53 -27 63 -36 11 -10 37 -17 65 -17 37 -1 47 -5 47 -19 0
-9 7 -21 14 -26 11 -6 15 -36 15 -127 0 -65 -1 -127 -2 -138 -6 -58 4 -125 19
-130 18 -6 33 -58 18 -63 -5 -2 -9 -26 -9 -53 0 -36 -5 -54 -20 -69 -11 -11
-20 -24 -20 -29 0 -5 -7 -14 -15 -21 -30 -25 -90 -127 -98 -165 -16 -86 -15
-109 4 -159 15 -37 20 -70 18 -126 -2 -82 14 -212 36 -298 8 -31 15 -65 15
-75 0 -10 6 -33 14 -50 31 -74 36 -90 42 -141 6 -53 6 -53 -40 -97 -26 -24
-58 -49 -71 -54 -13 -6 -32 -18 -43 -28 -17 -16 -24 -17 -43 -6 -17 9 -24 9
-27 0 -6 -17 -26 -13 -52 9 -27 24 -56 25 -130 6 -30 -8 -73 -13 -94 -13 -21
1 -40 -2 -42 -8 -1 -5 22 -30 51 -55 29 -25 54 -52 54 -61 2 -35 51 -77 164
-139 53 -29 48 -44 -10 -35 -112 17 -165 9 -271 -41 -39 -18 -77 -15 -78 6 -1
32 -15 57 -39 68 -15 7 -26 8 -30 2 -4 -6 -14 -10 -23 -10 -9 0 -56 -38 -104
-85 -77 -73 -88 -88 -88 -118 0 -19 -7 -40 -15 -47 -8 -7 -15 -25 -15 -41 0
-16 -4 -29 -8 -29 -4 0 -16 -14 -26 -31 -24 -40 -76 -88 -96 -89 -9 0 -22 6
-28 12 -10 10 -15 10 -22 -2 -7 -12 -12 -12 -22 -2 -6 6 -26 12 -43 12 -17 0
-41 7 -53 16 -13 9 -29 14 -35 11 -15 -6 -62 17 -62 31 0 11 -59 62 -72 62 -6
0 -33 25 -62 55 -28 30 -55 54 -59 53 -4 0 -16 17 -27 38 -12 22 -29 52 -39
67 -19 28 -23 52 -31 187 -7 142 -16 225 -25 255 -11 34 -9 337 2 345 4 3 8
23 9 45 2 22 9 55 16 73 7 17 11 32 8 32 -6 0 6 16 40 54 11 13 29 40 39 60
11 21 28 42 38 47 10 5 18 16 18 23 0 7 8 24 19 37 10 13 19 27 19 32 2 16 73
135 89 149 24 21 76 31 122 23 56 -9 59 -35 10 -75 -21 -17 -42 -42 -45 -55
-3 -14 -9 -25 -13 -25 -4 0 -12 -21 -18 -46 -10 -43 -9 -46 15 -62 14 -9 35
-18 47 -19 69 -8 106 -18 149 -39 51 -24 81 -19 69 12 -3 8 1 14 11 14 12 0
14 7 10 29 -5 26 -2 33 27 50 44 27 49 26 50 -6 0 -16 10 -46 22 -68 17 -31
29 -41 55 -45 34 -5 41 -26 8 -24 -10 0 -32 -12 -49 -28 -18 -16 -38 -26 -48
-23 -26 9 -41 -18 -24 -42 16 -23 60 -32 183 -37 61 -3 80 1 118 21 58 31 82
52 100 86 9 16 22 27 32 25 10 -2 22 8 30 25 7 15 23 32 35 37 33 12 73 60 96
113 11 26 25 47 31 47 5 0 10 7 10 15 0 8 4 15 9 15 5 0 18 16 30 35 12 21 28
35 39 35 26 0 46 49 37 92 -12 61 -15 65 -58 78 -45 13 -82 27 -109 41 -10 5
-28 9 -42 9 -13 0 -40 7 -59 15 -25 10 -37 11 -39 4 -3 -8 -17 -5 -43 8 -34
16 -60 18 -173 17 -73 -1 -147 -4 -165 -8 -17 -3 -54 -8 -82 -11 -45 -6 -161
-32 -222 -51 -19 -5 -23 -3 -23 16 0 23 124 285 140 295 4 3 11 21 14 40 4 19
13 35 20 35 8 0 16 10 20 23 3 14 18 27 40 35 32 12 79 61 82 87 0 5 2 16 2
23 1 6 8 12 16 12 8 0 17 8 20 18 6 17 49 42 72 42 7 0 21 11 32 25 11 14 24
25 28 25 5 0 20 9 34 20 14 11 33 20 42 20 10 0 47 14 81 30 35 17 73 30 85
30 11 0 23 4 27 9 10 18 215 1 265 -21z m-635 -1023 c-1 -17 -55 -37 -81 -31
-33 9 -30 21 9 34 38 12 72 11 72 -3z m186 -139 c5 3 9 -2 9 -10 0 -23 -4 -31
-12 -28 -5 1 -8 -5 -8 -13 0 -8 -7 -15 -15 -15 -18 0 -19 18 -4 57 6 16 13 23
16 15 3 -6 9 -10 14 -6z m-1428 -106 c-3 -11 -9 -17 -14 -15 -10 7 -1 35 11
35 5 0 6 -9 3 -20z m27 -197 c25 -34 43 -48 60 -49 31 0 140 -109 140 -138 0
-11 11 -29 24 -41 24 -19 24 -23 14 -72 -12 -62 -33 -83 -96 -100 -73 -19 -85
-16 -112 24 -44 65 -115 286 -124 390 -6 64 -4 73 16 97 l23 25 9 -44 c5 -24
26 -65 46 -92z m344 -938 c-4 -8 -8 -15 -10 -15 -2 0 -4 7 -4 15 0 8 4 15 10
15 5 0 7 -7 4 -15z m1316 -31 c25 -3 56 -12 70 -19 14 -7 40 -10 58 -8 17 3
32 1 32 -4 0 -6 11 -8 25 -5 31 6 44 -21 21 -47 -12 -13 -28 -17 -61 -15 -25
2 -45 -1 -45 -7 0 -5 -9 -9 -20 -9 -10 0 -28 -9 -39 -21 -14 -15 -39 -23 -97
-30 -42 -6 -85 -14 -94 -19 -10 -5 -20 -6 -24 -3 -7 7 -9 -7 -6 -62 2 -59 9
-75 33 -75 13 0 31 -6 42 -14 11 -7 43 -19 71 -25 89 -21 111 -64 65 -129 -22
-31 -103 -72 -144 -72 -18 0 -37 -4 -43 -10 -11 -11 -62 -15 -160 -12 l-70 2
-69 65 c-44 42 -69 72 -69 88 -1 12 -11 34 -24 47 -17 18 -21 34 -20 72 2 31
7 48 15 48 7 0 13 9 13 20 0 11 7 20 15 20 8 0 15 5 15 10 0 6 9 10 20 10 11
0 20 4 20 9 0 16 154 171 170 171 9 0 25 9 35 20 17 19 27 20 119 15 56 -3
121 -8 146 -11z m-1293 -136 c-3 -8 -6 -5 -6 6 -1 11 2 17 5 13 3 -3 4 -12 1
-19z m-5 -64 c-6 -30 -9 -34 -14 -19 -5 21 9 72 17 63 3 -3 2 -23 -3 -44z"/>
<path d="M2841 6830 c-25 -34 -21 -50 12 -50 30 1 54 21 62 53 7 25 5 27 -22
27 -21 0 -36 -9 -52 -30z"/>
<path d="M2960 6852 c0 -12 19 -26 26 -19 2 2 -2 10 -11 17 -9 8 -15 8 -15 2z"/>
<path d="M2456 6765 c18 -28 37 -33 32 -9 -2 9 -13 20 -26 25 -21 8 -22 8 -6
-16z"/>
<path d="M3212 6750 c0 -14 2 -19 5 -12 2 6 2 18 0 25 -3 6 -5 1 -5 -13z"/>
<path d="M2242 4670 c0 -14 2 -19 5 -12 2 6 2 18 0 25 -3 6 -5 1 -5 -13z"/>
<path d="M2330 2698 c-13 -23 -32 -59 -42 -78 -10 -19 -40 -60 -68 -90 l-51
-55 5 -80 c8 -148 117 -414 250 -613 92 -138 152 -212 232 -285 l64 -59 57 22
c32 12 81 35 110 51 31 18 74 32 105 36 47 5 175 54 188 72 3 4 21 19 41 34
28 21 43 26 70 21 l34 -5 -25 15 c-36 22 -47 20 -139 -24 -45 -22 -94 -40
-107 -40 -106 0 -403 370 -562 700 -73 150 -94 210 -121 343 l-16 79 -25 -44z"/>
<path d="M7561 1633 c-6 -109 -19 -283 -26 -388 -8 -104 -19 -253 -25 -330 -5
-77 -17 -230 -26 -340 -8 -110 -14 -220 -12 -244 3 -42 6 -46 56 -73 l52 -29
0 801 c0 440 -1 800 -3 800 -2 0 -9 -89 -16 -197z"/>
<path d="M4986 1031 c-12 -19 6 -37 54 -54 27 -10 54 -25 59 -35 8 -17 25
-365 25 -560 1 -111 -4 -122 -56 -122 -14 0 -33 -3 -42 -6 -19 -7 -22 -59 -4
-70 7 -4 50 -7 97 -5 50 1 122 -5 177 -15 99 -19 124 -13 124 27 0 24 -40 52
-56 39 -19 -16 -38 -2 -57 40 -13 31 -17 69 -17 170 l0 129 58 3 57 3 -78 15
c-62 11 -74 16 -56 22 13 5 30 6 38 2 9 -3 58 -8 109 -11 51 -2 107 -10 125
-18 32 -14 31 -14 -38 -16 l-70 -1 90 -17 90 -16 3 -144 c3 -165 -2 -178 -71
-183 -46 -3 -57 -21 -33 -53 13 -17 30 -21 140 -26 69 -3 131 -11 139 -17 7
-6 29 -13 48 -14 l34 -3 0 45 c0 41 -3 47 -32 61 -61 31 -60 24 -66 231 -3
106 -11 239 -17 296 -14 121 -10 147 27 161 26 10 25 11 -14 8 -37 -2 -40 0
-32 15 5 10 16 18 24 18 8 0 15 4 15 9 0 4 -39 11 -86 15 -96 7 -136 15 -130
25 2 3 -17 6 -42 6 -72 -1 -67 -44 7 -66 21 -6 43 -20 50 -31 12 -19 31 -151
31 -216 l0 -33 -129 5 c-92 4 -139 10 -164 22 -35 17 -35 17 -42 100 -10 110
-2 150 33 169 26 13 26 14 5 15 -13 0 -23 5 -23 11 0 6 9 8 20 4 11 -4 20 -2
20 4 0 6 7 11 15 11 8 0 15 -7 15 -15 0 -8 5 -15 11 -15 6 0 9 12 7 28 -3 27
-4 27 -78 28 -96 1 -202 13 -214 25 -13 12 -93 12 -100 0z m178 -807 c34 -13
13 -24 -46 -24 -66 0 -71 15 -8 23 19 2 36 5 37 5 1 1 8 -1 17 -4z m96 -20 c0
-2 -15 -4 -32 -4 -23 0 -29 3 -19 9 12 8 51 4 51 -5z m109 -13 c23 -15 -5 -22
-49 -12 -23 5 -44 12 -47 15 -10 9 81 7 96 -3z m324 -21 c9 0 17 -3 17 -7 0
-7 -63 -9 -115 -3 -15 2 -12 4 10 10 17 5 39 6 50 4 11 -2 28 -4 38 -4z"/>
<path d="M5806 945 c-3 -10 1 -15 14 -15 10 0 21 -8 23 -17 4 -15 5 -14 6 3 1
19 -16 44 -30 44 -4 0 -9 -7 -13 -15z"/>
<path d="M0 328 c0 -148 2 -268 4 -268 2 0 14 52 26 116 18 98 20 125 11 182
-6 37 -13 99 -17 137 -14 154 -23 89 -24 -167z"/>
<path d="M6626 500 c-2 -3 -6 -18 -10 -33 -4 -16 -15 -38 -25 -48 -10 -11 -22
-39 -25 -61 -4 -22 -9 -38 -13 -35 -9 10 -39 -53 -79 -161 -30 -83 -44 -117
-62 -154 -2 -5 15 -8 37 -8 39 0 41 1 55 47 23 72 41 122 49 129 4 4 7 15 7
25 0 9 9 19 20 22 14 4 20 14 20 35 0 16 7 35 15 42 8 7 15 25 15 41 0 16 9
46 20 66 11 21 20 52 20 70 0 26 -4 31 -21 30 -11 -1 -22 -4 -23 -7z"/>
</g>
</svg>
